<svg width="15" height="54" viewBox="0 0 15 54" fill="none" xmlns="http://www.w3.org/2000/svg">
<path d="M8.93139 2.14258C8.93139 1.42647 8.35087 0.845954 7.63477 0.845954C6.91866 0.845954 6.33814 1.42647 6.33814 2.14258L8.93139 2.14258ZM7.63476 40.1769C3.81553 40.1769 0.719437 43.273 0.719437 47.0922C0.719437 50.9114 3.81553 54.0075 7.63476 54.0075C11.454 54.0075 14.5501 50.9114 14.5501 47.0922C14.5501 43.273 11.454 40.1769 7.63476 40.1769ZM6.33814 4.95193C6.33814 5.66803 6.91866 6.24855 7.63477 6.24855C8.35087 6.24855 8.93139 5.66803 8.93139 4.95193L6.33814 4.95193ZM8.93139 10.5706C8.93139 9.85453 8.35087 9.27401 7.63477 9.27401C6.91866 9.27401 6.33814 9.85453 6.33814 10.5706L8.93139 10.5706ZM6.33814 16.1893C6.33814 16.9054 6.91866 17.486 7.63476 17.486C8.35087 17.486 8.93139 16.9054 8.93139 16.1893L6.33814 16.1893ZM8.93139 21.808C8.93139 21.0919 8.35087 20.5114 7.63476 20.5114C6.91866 20.5114 6.33814 21.0919 6.33814 21.808L8.93139 21.808ZM6.33814 27.4267C6.33814 28.1428 6.91866 28.7234 7.63476 28.7234C8.35087 28.7234 8.93139 28.1428 8.93139 27.4267L6.33814 27.4267ZM8.93139 33.0454C8.93139 32.3293 8.35087 31.7488 7.63476 31.7488C6.91866 31.7488 6.33814 32.3293 6.33814 33.0454L8.93139 33.0454ZM6.33814 38.6641C6.33814 39.3802 6.91866 39.9608 7.63476 39.9608C8.35087 39.9608 8.93139 39.3802 8.93139 38.6641L6.33814 38.6641ZM8.93139 44.2828C8.93139 43.5667 8.35087 42.9862 7.63476 42.9862C6.91866 42.9862 6.33814 43.5667 6.33814 44.2828L8.93139 44.2828ZM6.33814 2.14258L6.33814 4.95193L8.93139 4.95193L8.93139 2.14258L6.33814 2.14258ZM6.33814 10.5706L6.33814 16.1893L8.93139 16.1893L8.93139 10.5706L6.33814 10.5706ZM6.33814 21.808L6.33814 27.4267L8.93139 27.4267L8.93139 21.808L6.33814 21.808ZM6.33814 33.0454L6.33814 38.6641L8.93139 38.6641L8.93139 33.0454L6.33814 33.0454ZM6.33814 44.2828L6.33814 47.0922L8.93139 47.0922L8.93139 44.2828L6.33814 44.2828Z" fill="#AC938A"/>
</svg>
