<svg width="52" height="52" viewBox="0 0 52 52" fill="none" xmlns="http://www.w3.org/2000/svg">
<path d="M26.0007 24.9168C24.5641 24.9168 23.1863 24.3461 22.1705 23.3303C21.1547 22.3145 20.584 20.9368 20.584 19.5002C20.584 18.0636 21.1547 16.6858 22.1705 15.67C23.1863 14.6542 24.5641 14.0835 26.0007 14.0835C27.4372 14.0835 28.815 14.6542 29.8308 15.67C30.8466 16.6858 31.4173 18.0636 31.4173 19.5002C31.4173 20.2115 31.2772 20.9159 31.005 21.573C30.7328 22.2302 30.3338 22.8273 29.8308 23.3303C29.3278 23.8333 28.7307 24.2323 28.0735 24.5045C27.4163 24.7767 26.712 24.9168 26.0007 24.9168ZM26.0007 4.3335C21.9782 4.3335 18.1205 5.93141 15.2762 8.77571C12.4319 11.62 10.834 15.4777 10.834 19.5002C10.834 30.8752 26.0007 47.6668 26.0007 47.6668C26.0007 47.6668 41.1673 30.8752 41.1673 19.5002C41.1673 15.4777 39.5694 11.62 36.7251 8.77571C33.8808 5.93141 30.0231 4.3335 26.0007 4.3335Z" fill="#E5E5E5"/>
</svg>
