<svg width="52" height="52" viewBox="0 0 52 52" fill="none" xmlns="http://www.w3.org/2000/svg">
<path d="M28.6004 5.2002C28.9452 5.2002 29.2758 5.33716 29.5196 5.58096C29.7634 5.82475 29.9004 6.15541 29.9004 6.5002V10.4002L32.5004 10.4028C33.5347 10.4028 34.5267 10.8137 35.2581 11.5451C35.9895 12.2765 36.4004 13.2685 36.4004 14.3028V20.9406C34.9322 21.2403 33.6127 22.038 32.6651 23.1988C31.7175 24.3596 31.2001 25.8121 31.2004 27.3106V46.8002H26.0004V20.8106C26.0004 19.4315 25.4525 18.1088 24.4773 17.1336C23.5022 16.1585 22.1795 15.6106 20.8004 15.6106V14.3028C20.8004 13.2685 21.2113 12.2765 21.9427 11.5451C22.6741 10.8137 23.666 10.4028 24.7004 10.4028H27.3004V6.5002C27.3004 6.15541 27.4374 5.82475 27.6812 5.58096C27.9249 5.33716 28.2556 5.2002 28.6004 5.2002ZM22.4748 18.8216C21.7468 18.3094 21.2268 18.2912 20.79 18.4238C20.669 18.4704 20.5517 18.5261 20.439 18.5902L12.2932 23.4782C11.7159 23.8247 11.2382 24.3148 10.9065 24.9007C10.5748 25.4867 10.4004 26.1485 10.4004 26.8218V42.9002C10.4004 43.9345 10.8113 44.9265 11.5427 45.6579C12.2741 46.3893 13.266 46.8002 14.3004 46.8002H23.4004V20.8106C23.4004 20.4316 23.3175 20.0573 23.1576 19.7137C22.9978 19.3701 22.7647 19.0656 22.4748 18.8216ZM40.3004 23.4002V23.4106H37.7004C36.666 23.4106 35.6741 23.8215 34.9427 24.5529C34.2113 25.2843 33.8004 26.2762 33.8004 27.3106V46.8002H42.9004C43.9347 46.8002 44.9267 46.3893 45.6581 45.6579C46.3895 44.9265 46.8004 43.9345 46.8004 42.9002V27.3002C46.8004 26.2659 46.3895 25.2739 45.6581 24.5425C44.9267 23.8111 43.9347 23.4002 42.9004 23.4002H40.3004Z" fill="#E5E5E5"/>
</svg>
