<svg width="52" height="52" viewBox="0 0 52 52" fill="none" xmlns="http://www.w3.org/2000/svg">
<path fill-rule="evenodd" clip-rule="evenodd" d="M24.479 4.75569C25.4597 4.38808 26.5403 4.38808 27.521 4.75569L42.6877 10.4432C43.5138 10.7529 44.2258 11.3074 44.7283 12.0326C45.2309 12.7577 45.5001 13.6191 45.5 14.5014V26.1212C45.5001 29.7426 44.4917 33.2925 42.5879 36.3731C40.684 39.4537 37.9599 41.9433 34.7208 43.5629L27.4538 47.1964C27.0025 47.4221 26.5047 47.5397 26 47.5397C25.4953 47.5397 24.9975 47.4221 24.5462 47.1964L17.2792 43.5629C14.0401 41.9433 11.316 39.4537 9.41215 36.3731C7.5083 33.2925 6.49992 29.7426 6.5 26.1212V14.5014C6.49989 13.6191 6.76911 12.7577 7.27166 12.0326C7.77422 11.3074 8.48617 10.7529 9.31233 10.4432L24.479 4.75569ZM26 8.81385L10.8333 14.5014V26.1212C10.8338 28.9376 11.6185 31.6982 13.0995 34.0937C14.5804 36.4893 16.6992 38.4252 19.2183 39.6845L26 43.0797V8.81385Z" fill="#E5E5E5"/>
</svg>
