<svg width="52" height="52" viewBox="0 0 52 52" fill="none" xmlns="http://www.w3.org/2000/svg">
<path d="M23.4535 35.3707L33.4202 26.4873C33.7452 26.1985 33.8355 25.8554 33.691 25.4582C33.5466 25.0609 33.2577 24.8262 32.8243 24.754L25.0243 23.9957L29.6827 17.5498C29.791 17.3693 29.8546 17.1974 29.8734 17.0342C29.8921 16.8709 29.8286 16.7178 29.6827 16.5748C29.5382 16.3943 29.3577 16.3134 29.141 16.3322C28.9243 16.3509 28.7257 16.4318 28.5452 16.5748L18.6327 25.4582C18.3077 25.7471 18.2174 26.0901 18.3618 26.4873C18.5063 26.8846 18.7952 27.1193 19.2285 27.1915L27.0285 27.9498L22.316 34.3957C22.2077 34.5762 22.1535 34.7474 22.1535 34.9092C22.1535 35.0709 22.2257 35.2248 22.3702 35.3707C22.5146 35.5166 22.6865 35.5888 22.8858 35.5873C23.0852 35.5859 23.2744 35.5137 23.4535 35.3707ZM25.9993 43.3332C23.9771 43.3332 22.0726 43.0168 20.2858 42.3842C18.4991 41.7515 16.8647 40.8581 15.3827 39.704L12.4035 42.6832C12.1868 42.8998 11.9435 43.0623 11.6733 43.1707C11.4032 43.279 11.123 43.3332 10.8327 43.3332C10.2188 43.3332 9.70457 43.1252 9.29002 42.7092C8.87546 42.2932 8.66746 41.7789 8.66602 41.1665C8.66602 40.8776 8.72018 40.5981 8.82852 40.328C8.93685 40.0579 9.09935 39.8138 9.31602 39.5957L12.2952 36.6165C11.1396 35.1359 10.2462 33.5023 9.61502 31.7155C8.98379 29.9287 8.66746 28.0235 8.66602 25.9998C8.66602 21.1609 10.3452 17.0623 13.7035 13.704C17.0618 10.3457 21.1605 8.6665 25.9993 8.6665H38.9993C40.191 8.6665 41.2115 9.09045 42.0609 9.93834C42.9102 10.7862 43.3341 11.8067 43.3327 12.9998V25.9998C43.3327 30.8387 41.6535 34.9373 38.2952 38.2957C34.9368 41.654 30.8382 43.3332 25.9993 43.3332Z" fill="#E5E5E5"/>
</svg>
