<svg width="52" height="52" viewBox="0 0 52 52" fill="none" xmlns="http://www.w3.org/2000/svg">
<path fill-rule="evenodd" clip-rule="evenodd" d="M6.5 11C4.77609 11 3.12279 11.6848 1.90381 12.9038C0.68482 14.1228 0 15.7761 0 17.5V34.8333C0 36.5572 0.68482 38.2105 1.90381 39.4295C3.12279 40.6485 4.77609 41.3333 6.5 41.3333H28.1667C29.8906 41.3333 31.5439 40.6485 32.7629 39.4295C33.9818 38.2105 34.6667 36.5572 34.6667 34.8333V31.397L39.6348 36.3652C39.9378 36.6681 40.3239 36.8744 40.7441 36.9579C41.1643 37.0415 41.5999 36.9986 41.9958 36.8346C42.3916 36.6707 42.73 36.393 42.968 36.0368C43.2061 35.6806 43.3332 35.2618 43.3333 34.8333V17.5C43.3332 17.0715 43.2061 16.6527 42.968 16.2965C42.73 15.9403 42.3916 15.6626 41.9958 15.4987C41.5999 15.3347 41.1643 15.2918 40.7441 15.3754C40.3239 15.459 39.9378 15.6652 39.6348 15.9682L34.6667 20.9363V17.5C34.6667 15.7761 33.9818 14.1228 32.7629 12.9038C31.5439 11.6848 29.8906 11 28.1667 11H6.5Z" fill="#E5E5E5"/>
</svg>
